# Blender v2.77 (sub 0) OBJ File: ''
# www.blender.org
mtllib lines.mtl
o Curve.037
v -1.819240 0.000000 -1.127780
v -1.876979 0.000000 -1.127780
v -1.876979 0.000000 -0.644796
v -0.918505 0.000000 0.316683
v -0.916580 0.000000 0.237148
v -1.822447 0.000000 -0.671735
vn 0.0000 1.0000 0.0000
usemtl SVGMat
s off
f 3//1 1//1 2//1
f 3//1 6//1 1//1
f 3//1 5//1 6//1
f 4//1 5//1 3//1
o Curve.036
v -1.135990 0.000000 2.389732
v -1.135990 0.000000 2.447459
v -0.652903 0.000000 2.447459
v 0.308137 0.000000 1.489187
v 0.228585 0.000000 1.486621
v -0.680490 0.000000 2.392298
vn 0.0000 1.0000 0.0000
usemtl SVGMat
s off
f 12//2 10//2 11//2
f 12//2 9//2 10//2
f 8//2 12//2 7//2
f 8//2 9//2 12//2
o Curve.035
v -1.059004 0.000000 0.879844
v -1.001264 0.000000 0.879844
v -1.001264 0.000000 0.397501
v -1.959739 0.000000 -0.563336
v -1.962305 0.000000 -0.483801
v -1.055796 0.000000 0.424441
vn 0.0000 1.0000 0.0000
usemtl SVGMat
s off
f 17//3 15//3 16//3
f 18//3 15//3 17//3
f 18//3 14//3 15//3
f 13//3 14//3 18//3
o Curve.034
v -1.547223 0.000000 2.135091
v -1.549789 0.000000 2.056197
v -0.190346 0.000000 0.697041
v -0.110153 0.000000 0.698324
vn 0.0000 1.0000 0.0000
usemtl SVGMat
s off
f 20//4 22//4 21//4
f 20//4 19//4 22//4
o Curve.033
v 1.838232 0.000000 1.786162
v 1.758680 0.000000 1.788086
v 0.399879 0.000000 0.429572
v 0.401162 0.000000 0.349395
vn 0.0000 1.0000 0.0000
usemtl SVGMat
s off
f 25//5 23//5 26//5
f 24//5 23//5 25//5
o Curve.032
v 2.290524 0.000000 -2.186113
v 2.293090 0.000000 -2.107219
v 0.933648 0.000000 -0.748064
v 0.853454 0.000000 -0.749346
vn 0.0000 1.0000 0.0000
usemtl SVGMat
s off
f 30//6 28//6 27//6
f 30//6 29//6 28//6
o Curve.031
v 2.137194 0.000000 1.527672
v 2.194933 0.000000 1.527672
v 2.194933 0.000000 1.045329
v 1.236459 0.000000 0.084491
v 1.234534 0.000000 0.164027
v 2.140402 0.000000 1.072268
vn 0.0000 1.0000 0.0000
usemtl SVGMat
s off
f 35//7 33//7 34//7
f 36//7 33//7 35//7
f 36//7 32//7 33//7
f 31//7 32//7 36//7
o Curve.030
v -1.075042 0.000000 -2.570961
v -1.132782 0.000000 -2.570961
v -1.132782 0.000000 -2.087976
v -0.174308 0.000000 -1.126498
v -0.172383 0.000000 -1.206033
v -1.078250 0.000000 -2.114916
vn 0.0000 1.0000 0.0000
usemtl SVGMat
s off
f 39//8 37//8 38//8
f 39//8 42//8 37//8
f 39//8 41//8 42//8
f 40//8 41//8 39//8
o Curve.029
v -1.135990 0.000000 2.389732
v -1.135990 0.000000 2.447459
v -0.652903 0.000000 2.447459
v 0.308137 0.000000 1.489187
v 0.228585 0.000000 1.486621
v -0.680490 0.000000 2.392298
vn 0.0000 1.0000 0.0000
usemtl SVGMat
s off
f 48//9 46//9 47//9
f 48//9 45//9 46//9
f 44//9 48//9 43//9
f 44//9 45//9 48//9
o Curve.028
v -3.779172 0.000000 2.671954
v -3.779172 0.000000 2.729681
v -3.298010 0.000000 2.729681
v -2.337611 0.000000 1.771409
v -2.417163 0.000000 1.768843
v -3.324955 0.000000 2.674520
vn 0.0000 1.0000 0.0000
usemtl SVGMat
s off
f 54//10 52//10 53//10
f 54//10 51//10 52//10
f 50//10 54//10 49//10
f 50//10 51//10 54//10
o Curve.027
v 3.540903 0.000000 2.346116
v 3.540903 0.000000 2.288388
v 3.058458 0.000000 2.288388
v 2.098059 0.000000 3.246661
v 2.177611 0.000000 3.249227
v 3.085403 0.000000 2.343550
vn 0.0000 1.0000 0.0000
usemtl SVGMat
s off
f 58//11 60//11 57//11
f 60//11 56//11 57//11
f 60//11 55//11 56//11
f 58//11 59//11 60//11
o Curve.026
v 3.453011 0.000000 1.967682
v 3.412594 0.000000 2.008733
v 3.752614 0.000000 2.349323
v 5.109491 0.000000 2.350606
v 5.054959 0.000000 2.292237
v 3.772503 0.000000 2.290954
vn 0.0000 1.0000 0.0000
usemtl SVGMat
s off
f 62//12 66//12 61//12
f 63//12 66//12 62//12
f 63//12 65//12 66//12
f 63//12 64//12 65//12
o Curve.025
v 3.813562 0.000000 2.069667
v 3.854621 0.000000 2.110717
v 4.194642 0.000000 1.770126
v 4.195925 0.000000 0.414178
v 4.138186 0.000000 0.468698
v 4.136902 0.000000 1.750884
vn 0.0000 1.0000 0.0000
usemtl SVGMat
s off
f 71//13 69//13 70//13
f 72//13 69//13 71//13
f 67//13 69//13 72//13
f 67//13 68//13 69//13
o Curve.024
v -3.346126 0.000000 -0.528059
v -3.305067 0.000000 -0.487008
v -2.965046 0.000000 -0.827599
v -2.963763 0.000000 -2.183547
v -3.021502 0.000000 -2.129027
v -3.022786 0.000000 -0.846841
vn 0.0000 1.0000 0.0000
usemtl SVGMat
s off
f 77//14 75//14 76//14
f 78//14 75//14 77//14
f 73//14 75//14 78//14
f 73//14 74//14 75//14
o Curve.023
v -2.879720 0.000000 -0.592200
v -2.920138 0.000000 -0.633250
v -3.260800 0.000000 -0.292660
v -3.262084 0.000000 1.063288
v -3.203702 0.000000 1.008769
v -3.203061 0.000000 -0.273417
vn 0.0000 1.0000 0.0000
usemtl SVGMat
s off
f 81//15 79//15 80//15
f 81//15 84//15 79//15
f 82//15 84//15 81//15
f 82//15 83//15 84//15
o Curve.022
v 3.354854 0.000000 0.106300
v 3.354854 0.000000 0.164027
v 3.836016 0.000000 0.164027
v 4.796415 0.000000 -0.794245
v 4.716863 0.000000 -0.796811
v 3.809071 0.000000 0.108865
vn 0.0000 1.0000 0.0000
usemtl SVGMat
s off
f 90//16 88//16 89//16
f 90//16 87//16 88//16
f 86//16 90//16 85//16
f 86//16 87//16 90//16
o Curve.021
v 3.309946 0.000000 -2.054623
v 3.268886 0.000000 -2.013572
v 3.610190 0.000000 -1.672341
v 4.967709 0.000000 -1.670416
v 4.913177 0.000000 -1.728785
v 3.630079 0.000000 -1.730068
vn 0.0000 1.0000 0.0000
usemtl SVGMat
s off
f 92//17 96//17 91//17
f 93//17 96//17 92//17
f 93//17 95//17 96//17
f 93//17 94//17 95//17
o Curve.020
v 4.111882 0.000000 -0.402983
v 4.169621 0.000000 -0.402983
v 4.169621 0.000000 -0.885326
v 3.211147 0.000000 -1.846164
v 3.208580 0.000000 -1.766628
v 4.115089 0.000000 -0.858387
vn 0.0000 1.0000 0.0000
usemtl SVGMat
s off
f 101//18 99//18 100//18
f 102//18 99//18 101//18
f 102//18 98//18 99//18
f 97//18 98//18 102//18
o Curve.019
v 2.348905 0.000000 -0.360650
v 2.389323 0.000000 -0.319599
v 2.730627 0.000000 -0.660831
v 2.732551 0.000000 -2.017421
v 2.674812 0.000000 -1.962901
v 2.672887 0.000000 -0.680715
vn 0.0000 1.0000 0.0000
usemtl SVGMat
s off
f 107//19 105//19 106//19
f 108//19 105//19 107//19
f 103//19 105//19 108//19
f 103//19 104//19 105//19
o Curve.018
v 2.386756 0.000000 -1.125215
v 2.345697 0.000000 -1.166265
v 2.004393 0.000000 -0.825033
v 2.003110 0.000000 0.531557
v 2.060849 0.000000 0.477037
v 2.062774 0.000000 -0.805149
vn 0.0000 1.0000 0.0000
usemtl SVGMat
s off
f 111//20 109//20 110//20
f 111//20 114//20 109//20
f 112//20 114//20 111//20
f 112//20 113//20 114//20
o Curve.017
v -1.578017 0.000000 0.125542
v -1.619076 0.000000 0.084491
v -1.960380 0.000000 0.425724
v -1.961663 0.000000 1.782313
v -1.903924 0.000000 1.727793
v -1.901999 0.000000 0.445607
vn 0.0000 1.0000 0.0000
usemtl SVGMat
s off
f 117//21 115//21 116//21
f 117//21 120//21 115//21
f 118//21 120//21 117//21
f 118//21 119//21 120//21
o Curve.016
v 3.038570 0.000000 -3.882652
v 3.096310 0.000000 -3.828132
v 3.096310 0.000000 -1.906456
v 3.038570 0.000000 -1.850654
vn 0.0000 1.0000 0.0000
usemtl SVGMat
s off
f 124//22 122//22 121//22
f 124//22 123//22 122//22
o Curve.015
v 3.038570 0.000000 -1.764063
v 3.096310 0.000000 -1.709542
v 3.096310 0.000000 0.212133
v 3.038570 0.000000 0.267936
vn 0.0000 1.0000 0.0000
usemtl SVGMat
s off
f 128//23 126//23 125//23
f 128//23 127//23 126//23
o Curve.014
v -2.262550 0.000000 -1.764063
v -2.205452 0.000000 -1.709542
v -2.205452 0.000000 0.212133
v -2.262550 0.000000 0.267936
vn 0.0000 1.0000 0.0000
usemtl SVGMat
s off
f 132//24 130//24 129//24
f 132//24 131//24 130//24
o Curve.013
v 2.094851 0.000000 2.965080
v 2.092285 0.000000 2.885545
v 3.451728 0.000000 1.526389
v 3.531922 0.000000 1.527672
vn 0.0000 1.0000 0.0000
usemtl SVGMat
s off
f 134//25 136//25 135//25
f 134//25 133//25 136//25
o Curve.012
v -3.156228 0.000000 2.729681
v -3.101696 0.000000 2.671954
v -1.178974 0.000000 2.671954
v -1.123800 0.000000 2.729681
vn 0.0000 1.0000 0.0000
usemtl SVGMat
s off
f 137//26 139//26 138//26
f 137//26 140//26 139//26
o Curve.011
v 2.488763 0.000000 0.215981
v 2.567673 0.000000 0.214057
v 3.927116 0.000000 1.573212
v 3.925833 0.000000 1.652748
vn 0.0000 1.0000 0.0000
usemtl SVGMat
s off
f 141//27 143//27 142//27
f 144//27 143//27 141//27
o Curve.010
v -4.746628 0.000000 -2.735163
v -4.667076 0.000000 -2.737087
v -3.307633 0.000000 -1.377932
v -3.309558 0.000000 -1.298396
vn 0.0000 1.0000 0.0000
usemtl SVGMat
s off
f 145//28 147//28 146//28
f 148//28 147//28 145//28
o Curve.009
v -2.245870 0.000000 1.069062
v -2.243945 0.000000 1.148597
v -3.603388 0.000000 2.507111
v -3.683581 0.000000 2.505828
vn 0.0000 1.0000 0.0000
usemtl SVGMat
s off
f 152//29 150//29 149//29
f 152//29 151//29 150//29
o Curve.008
v -4.746628 0.000000 -2.341335
v -4.667076 0.000000 -2.343259
v -3.307633 0.000000 -0.984104
v -3.309558 0.000000 -0.904568
vn 0.0000 1.0000 0.0000
usemtl SVGMat
s off
f 153//30 155//30 154//30
f 156//30 155//30 153//30
o Curve.007
v -0.729248 0.000000 -1.960335
v -0.649696 0.000000 -1.962901
v 0.709105 0.000000 -0.603745
v 0.707822 0.000000 -0.523569
vn 0.0000 1.0000 0.0000
usemtl SVGMat
s off
f 157//31 159//31 158//31
f 160//31 159//31 157//31
o Curve.006
v -0.903749 0.000000 -1.140609
v -0.846009 0.000000 -1.140609
v -0.846009 0.000000 -1.622952
v -1.804484 0.000000 -2.583789
v -1.806408 0.000000 -2.504254
v -0.900541 0.000000 -1.596012
vn 0.0000 1.0000 0.0000
usemtl SVGMat
s off
f 165//32 163//32 164//32
f 166//32 163//32 165//32
f 166//32 162//32 163//32
f 161//32 162//32 166//32
o Curve.005
v 1.151133 0.000000 -0.255458
v 1.093393 0.000000 -0.255458
v 1.093393 0.000000 0.227527
v 2.051868 0.000000 1.189006
v 2.053792 0.000000 1.109470
v 1.147925 0.000000 0.200587
vn 0.0000 1.0000 0.0000
usemtl SVGMat
s off
f 169//33 167//33 168//33
f 169//33 172//33 167//33
f 169//33 171//33 172//33
f 170//33 171//33 169//33
o Curve.004
v 0.615439 0.000000 1.409652
v 0.615439 0.000000 1.351925
v 0.131711 0.000000 1.351925
v -0.829971 0.000000 2.310197
v -0.750419 0.000000 2.312762
v 0.158656 0.000000 1.407086
vn 0.0000 1.0000 0.0000
usemtl SVGMat
s off
f 176//34 178//34 175//34
f 178//34 174//34 175//34
f 178//34 173//34 174//34
f 176//34 177//34 178//34
o Curve.003
v -1.059004 0.000000 0.879844
v -1.001264 0.000000 0.879844
v -1.001264 0.000000 0.397501
v -1.959739 0.000000 -0.563336
v -1.962305 0.000000 -0.483801
v -1.055796 0.000000 0.424441
vn 0.0000 1.0000 0.0000
usemtl SVGMat
s off
f 183//35 181//35 182//35
f 184//35 181//35 183//35
f 184//35 180//35 181//35
f 179//35 180//35 184//35
o Curve.002
v -1.956531 0.000000 2.309556
v -1.959097 0.000000 2.230661
v -0.599655 0.000000 0.871506
v -0.519461 0.000000 0.872789
vn 0.0000 1.0000 0.0000
usemtl SVGMat
s off
f 186//36 188//36 187//36
f 186//36 185//36 188//36
o Curve.001
v 2.053792 0.000000 2.310197
v 1.974882 0.000000 2.312762
v 0.615439 0.000000 0.953607
v 0.616722 0.000000 0.873430
vn 0.0000 1.0000 0.0000
usemtl SVGMat
s off
f 191//37 189//37 192//37
f 190//37 189//37 191//37
